<?xml version="1.0" standalone="no"?>
<!DOCTYPE svg PUBLIC "-//W3C//DTD SVG 20010904//EN"
 "http://www.w3.org/TR/2001/REC-SVG-20010904/DTD/svg10.dtd">
<svg version="1.0" xmlns="http://www.w3.org/2000/svg"
 width="16.000000pt" height="16.000000pt" viewBox="0 0 16.000000 16.000000"
 preserveAspectRatio="xMidYMid meet">
<metadata>
Created by potrace 1.11, written by Peter Selinger 2001-2013
</metadata>
<g transform="translate(0.000000,16.000000) scale(0.001839,-0.001839)"
fill="#000000" stroke="none">
<path d="M2369 6916 c-2 -2 -40 -7 -84 -10 -44 -4 -87 -9 -95 -11 -8 -2 -35
-7 -60 -10 -24 -4 -47 -8 -50 -10 -3 -2 -23 -6 -45 -9 -22 -4 -65 -13 -95 -22
-30 -8 -64 -17 -74 -19 -29 -7 -177 -56 -211 -70 -16 -7 -55 -23 -85 -35 -170
-69 -369 -183 -540 -309 -155 -114 -366 -319 -473 -461 -23 -30 -45 -57 -48
-60 -19 -15 -155 -230 -206 -325 -157 -295 -247 -583 -290 -935 -10 -83 -10
-488 0 -560 4 -30 10 -73 13 -95 58 -422 244 -851 522 -1212 66 -85 244 -272
337 -354 71 -63 326 -249 340 -249 3 0 29 -15 58 -33 153 -96 513 -242 671
-271 12 -2 56 -11 98 -20 42 -9 94 -18 115 -22 21 -3 48 -7 60 -9 169 -28 524
-25 708 5 33 5 78 12 100 15 68 11 239 54 337 86 353 117 709 329 963 576 14
13 18 10 100 -66 22 -20 69 -59 105 -86 36 -28 67 -52 70 -55 24 -24 305 -200
319 -200 5 0 29 -11 54 -25 92 -52 278 -125 452 -178 44 -13 101 -26 186 -42
13 -3 35 -7 49 -10 14 -3 41 -8 60 -11 19 -2 46 -7 60 -9 145 -25 584 -25 680
0 8 2 37 6 64 10 28 3 82 13 120 21 39 9 78 17 87 19 62 13 272 81 344 110
136 57 281 130 390 197 84 52 243 163 260 182 6 6 33 29 60 51 78 61 252 241
336 345 139 175 217 298 313 495 68 141 75 158 126 313 63 193 96 346 118 552
14 131 6 528 -12 612 -3 13 -8 39 -10 58 -8 55 -24 128 -46 215 -11 44 -22 88
-25 98 -40 164 -179 466 -302 657 -199 307 -520 625 -805 795 -242 145 -509
257 -748 314 -93 22 -102 24 -235 46 -164 28 -604 28 -746 0 -13 -3 -44 -8
-69 -11 -137 -19 -406 -99 -574 -171 -243 -103 -517 -280 -720 -464 l-49 -45
-26 26 c-244 233 -592 443 -921 553 -157 53 -352 100 -465 112 -27 3 -61 8
-75 11 -29 7 -484 17 -491 10z"/>
</g>
</svg>
