<svg xmlns="http://www.w3.org/2000/svg" viewBox="0 0 327.03 327.03"><defs><style>.a{fill:#fff;}</style></defs><title>facebook</title><path class="a" d="M283,0H44.07A44.07,44.07,0,0,0,0,44.07V283A44.07,44.07,0,0,0,44.07,327H161.89l.2-116.86H131.73a7.16,7.16,0,0,1-7.16-7.14l-.15-37.67a7.17,7.17,0,0,1,7.16-7.19h30.31v-36.4c0-42.24,25.8-65.24,63.48-65.24h30.92a7.17,7.17,0,0,1,7.16,7.16V95.46a7.16,7.16,0,0,1-7.16,7.16h-19c-20.49,0-24.46,9.74-24.46,24v31.51h45a7.16,7.16,0,0,1,7.11,8l-4.47,37.67a7.16,7.16,0,0,1-7.11,6.32H213.06L212.85,327H283A44.07,44.07,0,0,0,327,283V44.07A44.07,44.07,0,0,0,283,0Zm0,0"/></svg>