<svg xmlns="http://www.w3.org/2000/svg" viewBox="0 0 512 470.01"><defs><style>.a{fill:#edeef0;}.b{fill:#dcdee2;}.c{fill:#d8d9dd;}.d{fill:#b7b9c0;}.e{fill:#9ed04d;}.f{fill:#86b143;}.g{fill:#fff;}</style></defs><title>flask</title><path class="a" d="M461.67,140.48,359.6,242.55,264.31,452.13a66.31,66.31,0,0,1-107.26,19.45L19.42,334A66.31,66.31,0,0,1,38.81,226.71l209.47-95.46L350.37,29.18Z" transform="translate(0 -21)"/><path class="b" d="M264.31,452.13,359.6,242.55,461.67,140.48,406,84.83,88.16,402.69l68.89,68.89a66.31,66.31,0,0,0,107.26-19.45Z" transform="translate(0 -21)"/><rect class="c" x="351.44" y="44.69" width="32.02" height="157.41" transform="translate(20.37 274.97) rotate(-45)"/><rect class="d" x="379.26" y="111.86" width="32.02" height="78.7" transform="translate(8.85 302.79) rotate(-45)"/><path class="a" d="M427.93,174.34,316.51,62.91a24.55,24.55,0,0,1,0-34.72h0a24.55,24.55,0,0,1,34.72,0L462.66,139.61a24.55,24.55,0,0,1,0,34.72h0A24.55,24.55,0,0,1,427.93,174.34Z" transform="translate(0 -21)"/><path class="b" d="M427.93,174.34l-55.71-55.71L407,84l55.63,55.63a24.55,24.55,0,0,1,0,34.72h0A24.55,24.55,0,0,1,427.93,174.34Z" transform="translate(0 -21)"/><path class="e" d="M237.63,440l97.48-214.42,27.3-27.3L236.2,169,51,253.39a37,37,0,0,0-10.82,59.83L177.78,450.85A37,37,0,0,0,237.63,440Z" transform="translate(0 -21)"/><path class="f" d="M237.63,440l97.48-214.42,27.3-27.3-56.68-13.16L108.89,382l68.89,68.89A37,37,0,0,0,237.63,440Z" transform="translate(0 -21)"/><circle class="g" cx="80.25" cy="269.17" r="18.19"/><circle class="g" cx="226.17" cy="199.95" r="18.19"/><circle class="a" cx="195.89" cy="394.78" r="18.19"/><circle class="a" cx="235.04" cy="313.81" r="12.86"/><circle class="a" cx="308.93" cy="197.63" r="12.86"/><circle class="g" cx="151.31" cy="260.21" r="12.86"/><path class="e" d="M470,270s42,46.6,42,79.5a42,42,0,1,1-84.05,0C427.95,316.55,470,270,470,270Z" transform="translate(0 -21)"/><path class="f" d="M470,270s42,46.6,42,79.5a42,42,0,0,1-42,42Z" transform="translate(0 -21)"/></svg>
