<svg xmlns="http://www.w3.org/2000/svg" xmlns:xlink="http://www.w3.org/1999/xlink" viewBox="0 0 46.4 45.92"><defs><style>.a{fill:none;}.b{clip-path:url(#a);}.c{fill:#744716;}.d{fill:#9d714b;}.e{fill:#744818;}</style><clipPath id="a" transform="translate(-488 -360.92)"><rect class="a" x="488" y="361" width="46.8" height="46.8"/></clipPath></defs><title>justice</title><g class="b"><path class="c" d="M506.1,370.56l-.86-.86a1,1,0,0,1,0-1.4l7.09-7.09a1,1,0,0,1,1.4,0l.86.86a1,1,0,0,1,0,1.4l-7.09,7.09a1,1,0,0,1-1.4,0Zm0,0" transform="translate(-488 -360.92)"/></g><path class="c" d="M521.94,386.4l-.86-.86a1,1,0,0,1,0-1.4l7.09-7.09a1,1,0,0,1,1.4,0l.86.86a1,1,0,0,1,0,1.4l-7.09,7.09a1,1,0,0,1-1.4,0Zm0,0" transform="translate(-488 -360.92)"/><path class="d" d="M528.17,375.65l-1-1a.8.8,0,0,0-1.12,0,.8.8,0,0,1-1.14,0L517,366.73a.79.79,0,0,1,0-1.12.8.8,0,0,0,0-1.14l-1-1a1,1,0,0,0-1.4,0l-7.09,7.08a1,1,0,0,0,0,1.4l1,1a.79.79,0,0,0,1.12,0,.8.8,0,0,1,1.14,0l1.28,1.28a1.39,1.39,0,0,1,0,2l-6.37,6.37-1.13-1.13a1.6,1.6,0,1,0-2.26,2.26l1.13,1.13-7.82,7.82a4.15,4.15,0,0,1-1.9,1.08l-2.33.58a4.11,4.11,0,0,0-1.9,1.08l-.26.26a4.1,4.1,0,0,0,0,5.79l1,1a4.1,4.1,0,0,0,5.79,0l.26-.26a4.06,4.06,0,0,0,1.08-1.9l.58-2.32A4.12,4.12,0,0,1,499,396l7.82-7.82,1.13,1.13a1.6,1.6,0,0,0,2.27-2.26L509.07,386l6.37-6.37a1.39,1.39,0,0,1,2,0l1.28,1.27a.8.8,0,0,1,0,1.13.8.8,0,0,0,0,1.14l1,1a1,1,0,0,0,1.4,0l7.09-7.09a1,1,0,0,0,0-1.4Zm0,0" transform="translate(-488 -360.92)"/><path class="d" d="M534.4,406.84H517.6a4.8,4.8,0,0,1,4.8-4.8h7.2a4.8,4.8,0,0,1,4.8,4.8Zm0,0" transform="translate(-488 -360.92)"/><path class="e" d="M531.2,402H520.8a.8.8,0,1,1,0-1.6h10.4a.8.8,0,1,1,0,1.6Zm0,0" transform="translate(-488 -360.92)"/></svg>
