<svg xmlns="http://www.w3.org/2000/svg" xmlns:xlink="http://www.w3.org/1999/xlink" viewBox="0 0 635.14 132.28"><defs><style>.a{fill:#409946;}.b{fill:url(#a);}.c{fill:url(#b);}</style><linearGradient id="a" x1="60.96" y1="88.34" x2="148.84" y2="88.34" gradientUnits="userSpaceOnUse"><stop offset="0" stop-color="#535fab"/><stop offset="1" stop-color="#3e6ab3"/></linearGradient><linearGradient id="b" x1="12.87" y1="119.41" x2="75.01" y2="57.27" gradientUnits="userSpaceOnUse"><stop offset="0" stop-color="#54b748"/><stop offset="1" stop-color="#429b46"/></linearGradient></defs><title>logo1</title><path class="a" d="M320.57,403.05a33.12,33.12,0,0,1,2.69-13.29,35.37,35.37,0,0,1,7.23-10.85,33.85,33.85,0,0,1,10.68-7.32,32.56,32.56,0,0,1,13.21-2.69,31.79,31.79,0,0,1,9.59,1.43,31.15,31.15,0,0,1,8.24,4,32.2,32.2,0,0,1,6.48,5.8,26.11,26.11,0,0,1,4.29,7q0-4.2.17-8.41t.5-8.24h5v65.11H383V418.87a27.26,27.26,0,0,1-10.43,12.62q-7.57,5.22-18.17,5.22A33,33,0,0,1,341,434a34.51,34.51,0,0,1-10.68-7.23,33.37,33.37,0,0,1-7.15-10.68A33,33,0,0,1,320.57,403.05Zm5.72-.17a27.67,27.67,0,0,0,17.16,25.91,29.29,29.29,0,0,0,22.21,0,28.75,28.75,0,0,0,9.09-6,27.32,27.32,0,0,0,6.06-8.92,27.83,27.83,0,0,0,2.19-11,28.46,28.46,0,0,0-2.19-11.1,27.13,27.13,0,0,0-6.06-9,28.8,28.8,0,0,0-9.09-6,29.29,29.29,0,0,0-22.21,0,27.25,27.25,0,0,0-15,15A28.41,28.41,0,0,0,326.29,402.89Z" transform="translate(-149.62 -308)"/><path class="a" d="M418.83,435.53h-5.89V308h5.89Z" transform="translate(-149.62 -308)"/><path class="a" d="M437.84,403.05a33.12,33.12,0,0,1,2.69-13.29,35.37,35.37,0,0,1,7.23-10.85,33.85,33.85,0,0,1,10.68-7.32,32.56,32.56,0,0,1,13.21-2.69,31.79,31.79,0,0,1,9.59,1.43,31.15,31.15,0,0,1,8.24,4,32.2,32.2,0,0,1,6.48,5.8,26.11,26.11,0,0,1,4.29,7q0-4.2.17-8.41t.5-8.24h5v65.11h-5.72V418.87a27.26,27.26,0,0,1-10.43,12.62q-7.57,5.22-18.17,5.22A33,33,0,0,1,458.28,434a34.51,34.51,0,0,1-10.68-7.23,33.37,33.37,0,0,1-7.15-10.68A33,33,0,0,1,437.84,403.05Zm5.72-.17a27.67,27.67,0,0,0,17.16,25.91,29.29,29.29,0,0,0,22.21,0,28.75,28.75,0,0,0,9.09-6,27.32,27.32,0,0,0,6.06-8.92,27.83,27.83,0,0,0,2.19-11,28.46,28.46,0,0,0-2.19-11.1,27.13,27.13,0,0,0-6.06-9,28.8,28.8,0,0,0-9.09-6,29.29,29.29,0,0,0-22.21,0,27.25,27.25,0,0,0-15,15A28.41,28.41,0,0,0,443.56,402.89Z" transform="translate(-149.62 -308)"/><path class="a" d="M529.53,370.42h4.71c0,.45,0,1.51.08,3.2s.11,3.48.17,5.38.11,3.68.17,5.3.08,2.61.08,2.94a31.17,31.17,0,0,1,10.6-13.12,28.46,28.46,0,0,1,17-5q8.75,0,14.22,4.79a18.74,18.74,0,0,1,6.31,12.54,32.9,32.9,0,0,1,10.77-12.54,28.16,28.16,0,0,1,16.49-4.79q9.59,0,15.06,5.38a19.92,19.92,0,0,1,5.8,14v47.11H625.1v-46.1a15.8,15.8,0,0,0-4.21-10.09q-3.87-4.2-11.27-4.54a28.5,28.5,0,0,0-10.1,1.77,27.38,27.38,0,0,0-8.33,4.88,24.09,24.09,0,0,0-5.8,7.4,22.22,22.22,0,0,0-2.36,9.51v37.18h-5.72v-46.1A15.61,15.61,0,0,0,573,379.33q-4-4.2-11.19-4.54a28.53,28.53,0,0,0-10.35,1.85,27.61,27.61,0,0,0-8.41,5,23.21,23.21,0,0,0-5.72,7.74,22.94,22.94,0,0,0-2.1,9.76v36.34h-5.72Z" transform="translate(-149.62 -308)"/><path class="a" d="M707.2,436h-4.71l-.5-17.5A30.14,30.14,0,0,1,691,431.83a29.74,29.74,0,0,1-17.16,5q-9.42,0-14.89-5.47a20.19,20.19,0,0,1-5.8-14V370.42h5.72v45.93a15.57,15.57,0,0,0,4.29,10.1q4,4.21,11.36,4.71a28.56,28.56,0,0,0,18.84-6.9,22.62,22.62,0,0,0,7.91-17.5V370.42h5.89Z" transform="translate(-149.62 -308)"/><path class="a" d="M730.75,370.42h4.88q0,.67.08,3.2t.08,5.38q0,2.86.08,5.3t.08,2.94a30.31,30.31,0,0,1,10.94-13.12,29.72,29.72,0,0,1,17.16-5q9.42,0,14.89,5.38a19.91,19.91,0,0,1,5.8,14v47.11h-5.89v-46.1a15.81,15.81,0,0,0-4.21-10.09q-3.87-4.2-11.27-4.54A29.19,29.19,0,0,0,753,376.64a27.35,27.35,0,0,0-8.5,5,24.19,24.19,0,0,0-5.8,7.74,22.19,22.19,0,0,0-2.19,9.76v36.34h-5.72Z" transform="translate(-149.62 -308)"/><circle class="b" cx="104.9" cy="88.34" r="43.94"/><circle class="c" cx="43.94" cy="88.34" r="43.94"/></svg>