<svg xmlns="http://www.w3.org/2000/svg" viewBox="0 0 512 397"><defs><style>.a{fill:#694b4b;}.b{fill:#5a4146;}.c{fill:#785550;}.d{fill:#e6af78;}.e{fill:#eff2fa;}.f{fill:#d29b6e;}.g{fill:#e4eaf6;}.h{fill:#f0c087;}.i{fill:#5b5d6e;}.j{fill:#515262;}.k{fill:#b4e1fa;}.l{fill:#a0d2f0;}</style></defs><title>network</title><path class="a" d="M88.22,159.63c-82.14,0-73,99.89-72.66,172.28a7.73,7.73,0,0,0,3.79,6.61c9.1,5.49,34.1,18.32,68.87,18.32S148,344,157.09,338.52a7.73,7.73,0,0,0,3.79-6.61C161.26,259.52,170.36,159.63,88.22,159.63Z" transform="translate(0 -57.5)"/><path class="b" d="M82.93,159.84C6.54,164.12,15.2,261.13,15.56,331.91a7.73,7.73,0,0,0,3.79,6.61c9.1,5.49,34.1,18.32,68.87,18.32L109,211.53" transform="translate(0 -57.5)"/><path class="a" d="M88.22,159.63c-46.71,0-49.95,56.44-49.95,56.44,26.92-4.54,43.46,6.81,70.71-4.54L88.22,356.83c34.77,0,59.77-12.83,68.87-18.32a7.73,7.73,0,0,0,3.79-6.61C161.26,259.52,170.36,159.63,88.22,159.63Z" transform="translate(0 -57.5)"/><path class="c" d="M160.88,331.91c.32-62.2,7-144.65-43.18-166.64-.88,4.55-2.46,17.25,1.66,25.5,10.38,20.76,20.76,20.76,31.14,36.33,10.38,57.09-19.83,117.67-29.87,125.92h0a130.55,130.55,0,0,0,36.46-14.5A7.73,7.73,0,0,0,160.88,331.91Z" transform="translate(0 -57.5)"/><path class="d" d="M166.86,347.65l-46.31-19.29a10.38,10.38,0,0,1-6.39-9.58V306.24H62.28v12.54a10.38,10.38,0,0,1-6.39,9.58L9.58,347.65A15.57,15.57,0,0,0,0,362v20.76a10.38,10.38,0,0,0,10.38,10.38H166.07a10.38,10.38,0,0,0,10.38-10.38V362A15.57,15.57,0,0,0,166.86,347.65Z" transform="translate(0 -57.5)"/><path class="e" d="M166.86,347.65,122.09,329,88.22,343.62,54.35,329,9.58,347.65A15.57,15.57,0,0,0,0,362v20.76a10.38,10.38,0,0,0,10.38,10.38H166.07a10.38,10.38,0,0,0,10.38-10.38V362A15.57,15.57,0,0,0,166.86,347.65Z" transform="translate(0 -57.5)"/><path class="f" d="M114.17,306.24H62.28v12.54a10.38,10.38,0,0,1-6.39,9.58l-7.23,3C104,345.48,114.17,306.24,114.17,306.24Z" transform="translate(0 -57.5)"/><path class="g" d="M25.29,367.73,4.46,351.16A15.53,15.53,0,0,0,0,362v20.76a10.38,10.38,0,0,0,10.38,10.38H31.14V379.89A15.57,15.57,0,0,0,25.29,367.73Z" transform="translate(0 -57.5)"/><path class="g" d="M176.44,382.78V362a15.53,15.53,0,0,0-4.4-10.8l-20.9,16.5a15.57,15.57,0,0,0-5.84,12.16v13.28h20.76A10.38,10.38,0,0,0,176.44,382.78Z" transform="translate(0 -57.5)"/><path class="g" d="M89,382.78H87.44A4.41,4.41,0,0,1,83,378.37V343.63H93.41v34.74A4.41,4.41,0,0,1,89,382.78Z" transform="translate(0 -57.5)"/><path class="g" d="M88.22,343.62l-29.7-22.28a4.15,4.15,0,0,0-5.95,1l-5.87,8.8,18.21,25.49a4.15,4.15,0,0,0,6,.83Z" transform="translate(0 -57.5)"/><path class="g" d="M88.22,343.62l29.7-22.28a4.15,4.15,0,0,1,5.95,1l5.87,8.8-18.21,25.49a4.15,4.15,0,0,1-6,.83Z" transform="translate(0 -57.5)"/><path class="h" d="M114.17,206.34C88.22,232.29,37.3,211.53,37.3,253l3.22,30.58a20.76,20.76,0,0,0,10.59,16.27l29.55,16.41a15.57,15.57,0,0,0,15.12,0l29.55-16.41a20.76,20.76,0,0,0,10.59-16.27l3.72-36.32a57.29,57.29,0,0,0,.23-7.77C137.93,226.32,119.36,216.72,114.17,206.34Z" transform="translate(0 -57.5)"/><path class="d" d="M37.3,253l3.22,30.58a20.76,20.76,0,0,0,10.59,16.27l29.55,16.41a15.5,15.5,0,0,0,10.57,1.58h0s-14.9-4.51-23.76-28.52c-2.72-7.35-6.49-46.27-3.24-51,6.41-9.4,42.16-10.38,52.73-27.82q-.78-1-1.44-1.95l-.11-.16a19.92,19.92,0,0,1-1.22-2.08C88.22,232.29,37.3,211.53,37.3,253Z" transform="translate(0 -57.5)"/><path class="g" d="M126.11,382.78H112.61a8.82,8.82,0,0,0-8.82,8.82v1.56h31.14v-1.56A8.82,8.82,0,0,0,126.11,382.78Z" transform="translate(0 -57.5)"/><polygon class="d" points="442.78 266.02 442.78 237.52 369.49 237.52 369.49 266.02 406.13 298.6 442.78 266.02"/><path class="e" d="M499.44,336.86,449.06,325a8.06,8.06,0,0,1-2.12-.85L406.13,348l-39.22-25a8.1,8.1,0,0,1-3.71,2l-50.38,11.85a16.29,16.29,0,0,0-12.56,15.85V384.6a8.14,8.14,0,0,0,8.14,8.14H503.86A8.14,8.14,0,0,0,512,384.6V352.71A16.29,16.29,0,0,0,499.44,336.86Z" transform="translate(0 -57.5)"/><path class="f" d="M369.49,295v30.07c46.16,16.63,73.29-25,73.29-25V295H369.49Z" transform="translate(0 -57.5)"/><path class="h" d="M353.2,201.37l3.55,78.06a24.43,24.43,0,0,0,9.75,18.44l16.84,12.63A24.43,24.43,0,0,0,398,315.38h16.29a24.43,24.43,0,0,0,14.66-4.89l16.84-12.63a24.43,24.43,0,0,0,9.75-18.44l3.55-78.06H353.2Z" transform="translate(0 -57.5)"/><path class="d" d="M393.92,217.66c16.29,0,40.72-4.07,46.51-16.29H353.2l3.55,78.06a24.43,24.43,0,0,0,9.75,18.44l16.84,12.63A24.43,24.43,0,0,0,398,315.38h8.14c-8.14,0-24.43-16.29-24.43-36.65V229.87C381.7,225.8,385.77,217.66,393.92,217.66Z" transform="translate(0 -57.5)"/><path class="g" d="M482.11,366.32l26.39-23.7A16.26,16.26,0,0,1,512,352.71V384.6a8.14,8.14,0,0,1-8.14,8.14h-28.5V381.46A20.36,20.36,0,0,1,482.11,366.32Z" transform="translate(0 -57.5)"/><polygon class="i" points="416.31 335.25 395.95 335.25 398.5 298.6 413.77 298.6 416.31 335.25"/><path class="j" d="M416.31,348H396v2.35a9.86,9.86,0,0,0,9.86,9.86h.63a9.86,9.86,0,0,0,9.86-9.86V348Z" transform="translate(0 -57.5)"/><path class="g" d="M368.91,314.46,406.13,348a140.42,140.42,0,0,0-23.29,15.87,5.22,5.22,0,0,1-8.09-1.83l-17.49-38.47,5.53-8.3A4.07,4.07,0,0,1,368.91,314.46Z" transform="translate(0 -57.5)"/><path class="g" d="M443.35,314.46,406.13,348a140.42,140.42,0,0,1,23.29,15.87,5.22,5.22,0,0,0,8.09-1.83L455,323.52l-5.53-8.3A4.07,4.07,0,0,0,443.35,314.46Z" transform="translate(0 -57.5)"/><path class="c" d="M430.82,174.39l3.82,27c17.43,3.48,19.94,30.83,20.3,38.64a8,8,0,0,0,1.29,4l6.65,10.31s-2.28-17.05,8.14-28.5C471,225.8,474.59,158.11,430.82,174.39Z" transform="translate(0 -57.5)"/><path class="h" d="M467,252.56,462.36,271a4.9,4.9,0,0,1-4.75,3.71h0a4.9,4.9,0,0,1-4.86-4.29l-2.35-18.81a8.43,8.43,0,0,1,8.36-9.47h0A8.43,8.43,0,0,1,467,252.56Z" transform="translate(0 -57.5)"/><path class="a" d="M357.1,167.1l6,4.11C335.89,191.32,341,225.8,341,225.8c8.14,8.14,8.14,28.5,8.14,28.5l8.14-8.14s-3.14-23.52,12.22-32.57c14.25-8.4,26.72-4.07,39.45-4.07,34.1,0,43.64-12.85,42-28.5-.86-8.1-13.24-25-44.79-24.43C393.4,156.8,369.49,160.65,357.1,167.1Z" transform="translate(0 -57.5)"/><path class="b" d="M354.73,206s-4.33-17.05,8.4-34.74C335.89,191.32,341,225.8,341,225.8c8.14,8.14,8.14,28.5,8.14,28.5l8.14-8.14s-3.14-23.52,12.22-32.57c14.25-8.4,26.72-4.07,39.45-4.07a100.07,100.07,0,0,0,14.68-1C397.35,209.39,381.87,189.49,354.73,206Z" transform="translate(0 -57.5)"/><path class="d" d="M345.31,252.56l4.6,18.39a4.9,4.9,0,0,0,4.75,3.71h0a4.9,4.9,0,0,0,4.86-4.29l2.35-18.81a8.43,8.43,0,0,0-8.36-9.47h0A8.43,8.43,0,0,0,345.31,252.56Z" transform="translate(0 -57.5)"/><path class="g" d="M455,384.6H434.64a8.14,8.14,0,0,0-8.14,8.14h36.65A8.14,8.14,0,0,0,455,384.6Z" transform="translate(0 -57.5)"/><path class="a" d="M256.15,57.5C116.51,57.5,132,227.31,132.63,350.37a13.14,13.14,0,0,0,6.44,11.24c15.47,9.33,58,31.14,117.08,31.14s101.61-21.81,117.08-31.14a13.14,13.14,0,0,0,6.44-11.24C380.31,227.31,395.8,57.5,256.15,57.5Z" transform="translate(0 -57.5)"/><path class="b" d="M247.16,57.85C117.29,65.13,132,230,132.63,350.37a13.14,13.14,0,0,0,6.44,11.24c15.47,9.33,58,31.14,117.08,31.14l35.29-247" transform="translate(0 -57.5)"/><path class="a" d="M256.15,57.5c-79.4,0-84.91,95.94-84.91,95.94,45.77-7.72,73.89,11.58,120.2-7.72l-35.29,247c59.11,0,101.61-21.81,117.08-31.14a13.14,13.14,0,0,0,6.44-11.24C380.31,227.31,395.8,57.5,256.15,57.5Z" transform="translate(0 -57.5)"/><path class="c" d="M379.68,350.37c.55-105.74,12-245.91-73.41-283.29-1.49,7.74-4.19,29.33,2.82,43.35,17.64,35.29,35.29,35.29,52.93,61.76,17.64,97-33.71,200-50.77,214.07h0c30.22-7.19,51.89-18.56,62-24.65A13.14,13.14,0,0,0,379.68,350.37Z" transform="translate(0 -57.5)"/><path class="d" d="M389.85,377.14l-78.72-32.8A17.64,17.64,0,0,1,300.27,328V306.73H212V328a17.65,17.65,0,0,1-10.86,16.29l-78.72,32.8a26.47,26.47,0,0,0-16.29,24.43v35.29a17.65,17.65,0,0,0,17.64,17.64H388.49a17.65,17.65,0,0,0,17.64-17.64V401.57A26.47,26.47,0,0,0,389.85,377.14Z" transform="translate(0 -57.5)"/><path class="k" d="M389.85,377.14l-76.11-31.71-57.58,24.85-57.58-24.85-76.11,31.71a26.47,26.47,0,0,0-16.29,24.43v35.29a17.65,17.65,0,0,0,17.64,17.64H388.49a17.65,17.65,0,0,0,17.64-17.64V401.57A26.47,26.47,0,0,0,389.85,377.14Z" transform="translate(0 -57.5)"/><path class="f" d="M300.27,306.73H212V328a17.65,17.65,0,0,1-10.86,16.29l-12.29,5.12C283,373.45,300.27,306.73,300.27,306.73Z" transform="translate(0 -57.5)"/><path class="l" d="M149.18,411.26,113.77,383.1a26.41,26.41,0,0,0-7.59,18.47v35.29a17.65,17.65,0,0,0,17.64,17.64h35.29V431.93A26.47,26.47,0,0,0,149.18,411.26Z" transform="translate(0 -57.5)"/><path class="l" d="M406.13,436.86V401.57a26.41,26.41,0,0,0-7.47-18.36l-35.53,28.06a26.47,26.47,0,0,0-9.93,20.67V454.5h35.29A17.64,17.64,0,0,0,406.13,436.86Z" transform="translate(0 -57.5)"/><path class="l" d="M256.15,436.86h0a8.82,8.82,0,0,1-8.82-8.82V370.29H265V428A8.82,8.82,0,0,1,256.15,436.86Z" transform="translate(0 -57.5)"/><path class="l" d="M256.15,370.27,205.66,332.4a7.06,7.06,0,0,0-10.11,1.73l-10,15,31,43.34a7.06,7.06,0,0,0,10.15,1.41Z" transform="translate(0 -57.5)"/><path class="l" d="M256.15,370.27l50.49-37.87a7.06,7.06,0,0,1,10.11,1.73l10,15-31,43.34a7.06,7.06,0,0,1-10.15,1.41Z" transform="translate(0 -57.5)"/><path class="h" d="M300.27,136.9c-44.11,44.11-130.68,8.82-130.68,79.4l5.48,52a35.29,35.29,0,0,0,18,27.65l50.23,27.91a26.47,26.47,0,0,0,25.71,0l50.23-27.91a35.29,35.29,0,0,0,18-27.65l6.32-61.74a97.27,97.27,0,0,0,.4-13.21C340.67,170.88,309.09,154.54,300.27,136.9Z" transform="translate(0 -57.5)"/><path class="d" d="M169.59,216.3l5.48,52a35.29,35.29,0,0,0,18,27.65l50.23,27.91a26.36,26.36,0,0,0,18,2.69h0s-25.33-7.67-40.4-48.48c-4.62-12.5-11-78.66-5.51-86.75,10.9-16,71.68-17.64,89.64-47.3q-1.33-1.65-2.45-3.31l-.19-.27a33.42,33.42,0,0,1-2.08-3.53C256.15,181,169.59,145.72,169.59,216.3Z" transform="translate(0 -57.5)"/><path class="l" d="M326.73,436.86H291.44a8.82,8.82,0,0,0-8.82,8.82v8.82h52.93v-8.82A8.82,8.82,0,0,0,326.73,436.86Z" transform="translate(0 -57.5)"/></svg>
