<svg xmlns="http://www.w3.org/2000/svg" xmlns:xlink="http://www.w3.org/1999/xlink" viewBox="0 0 328.12 272.94"><defs><style>.a{fill:none;}.b{clip-path:url(#a);}.c{fill:#fff;}</style><clipPath id="a" transform="translate(0 0.06)"><rect class="a" width="328.8" height="273.84"/></clipPath></defs><title>twitter</title><g class="b"><path class="c" d="M322.91,31.69a129.7,129.7,0,0,1-22.63,7.63A70.5,70.5,0,0,0,318.9,9.67a3.7,3.7,0,0,0-5.41-4.31A130.51,130.51,0,0,1,278.9,19.65a8.76,8.76,0,0,1-2.16.27,9.17,9.17,0,0,1-6.06-2.31A70.73,70.73,0,0,0,223.88-.06,75.58,75.58,0,0,0,201.47,3.4a68.54,68.54,0,0,0-46.19,49.38,75.5,75.5,0,0,0-1.67,26,2.54,2.54,0,0,1-.64,2,2.63,2.63,0,0,1-2,.89h-.25A185.5,185.5,0,0,1,23.27,13.57a3.7,3.7,0,0,0-6.06.47,70.83,70.83,0,0,0,11.51,86,63.35,63.35,0,0,1-16.14-6.25A3.7,3.7,0,0,0,7.09,97a70.83,70.83,0,0,0,41.32,65.25H46.89A63.33,63.33,0,0,1,35,161.11a3.7,3.7,0,0,0-4.22,4.76,70.9,70.9,0,0,0,56,48.22,130.55,130.55,0,0,1-73.11,22.2H5.47a5.42,5.42,0,0,0-5.3,4.09,5.6,5.6,0,0,0,2.68,6.19,194.15,194.15,0,0,0,97.56,26.3c30,0,58-5.95,83.38-17.69a184.09,184.09,0,0,0,61-45.71,200.39,200.39,0,0,0,37.35-62.56,197.65,197.65,0,0,0,12.7-68.47V77.37a12,12,0,0,1,4.5-9.37,139.87,139.87,0,0,0,28.13-30.87,3.7,3.7,0,0,0-4.57-5.44Zm0,0" transform="translate(0 0.06)"/></g></svg>